<svg xmlns="http://www.w3.org/2000/svg" viewBox="18 24 288 136" role="img" aria-label="Red Door Property Management" xmlns:c2pa="http://c2pa.org/manifest"><metadata><c2pa:manifest>AAAWgmp1bWIAAAAeanVtZGMycGEAEQAQgAAAqgA4m3EDYzJwYQAAABZcanVtYgAAAEdqdW1kYzJtYQARABCAAACqADibcQN1cm46YzJwYTo5YmYwYzQ1Yi03ZWM2LTQwMjEtODQzZS1mYjhlZWEyNTliMmEAAAADl2p1bWIAAAApanVtZGMyYXMAEQAQgAAAqgA4m3EDYzJwYS5hc3NlcnRpb25zAAAAALxqdW1iAAAARGp1bWRjYm9yABEAEIAAAKoAOJtxE2MycGEuaW5ncmVkaWVudC52MwAAAAAYYzJzaAPwx/Oa2QAx/kwS98x0ZFoAAABwY2JvcqNpZGM6Zm9ybWF0bWltYWdlL3N2Zyt4bWxqaW5zdGFuY2VJRHgseG1wOmlpZDo1M2NhN2IwMi1hZWM4LTQ1OWUtYjdmMC00NDM3MGY2MTJmYjJscmVsYXRpb25zaGlwaHBhcmVudE9mAAAB4mp1bWIAAABBanVtZGNib3IAEQAQgAAAqgA4m3ETYzJwYS5hY3Rpb25zLnYyAAAAABhjMnNo4ZjhRoPxEWLFVh6nFFR51QAAAZljYm9yomdhY3Rpb25zgqJmYWN0aW9ua2MycGEub3BlbmVkanBhcmFtZXRlcnOha2luZ3JlZGllbnRzgaJjdXJseC1zZWxmI2p1bWJmPWMycGEuYXNzZXJ0aW9ucy9jMnBhLmluZ3JlZGllbnQudjNkaGFzaFggq2+pPPicJpZke5gHm6DGUvFIPs33EEBj9Y56khUt4d+kZmFjdGlvbngdY29tLmFudGhyb3BpYy5jbGF1ZGUucHJvdmlkZWRqcGFyYW1ldGVyc6F4H2NvbS5hbnRocm9waWMub3JpZ2luLWNvbmZpZGVuY2VndW5rbm93bmtkZXNjcmlwdGlvbnhmQ2xhdWRlIHByb3ZpZGVkIHRoaXMgZmlsZSBhdCB0aGUgcmVxdWVzdCBvZiBhIHVzZXIgYW5kIG1heSBoYXZlIGNyZWF0ZWQgb3IgbW9kaWZpZWQgdGhlIGZpbGUgY29udGVudHMubXNvZnR3YXJlQWdlbnShZG5hbWVmQ2xhdWRlcmFsbEFjdGlvbnNJbmNsdWRlZPUAAADIanVtYgAAAEBqdW1kY2JvcgARABCAAACqADibcRNjMnBhLmhhc2guZGF0YQAAAAAYYzJzaKZ68FajcSPZnBfW5xv28xYAAACAY2JvcqVjYWxnZnNoYTI1NmNwYWRNAAAAAAAAAAAAAAAAAGRoYXNoWCDxBBpRtt0NnqVi2O9NDuZI/i/Kwr6kx+SayJ3mObAGmmRuYW1lbmp1bWJmIG1hbmlmZXN0amV4Y2x1c2lvbnOBomVzdGFydBi0Zmxlbmd0aBkeBAAAAj5qdW1iAAAAJ2p1bWRjMmNsABEAEIAAAKoAOJtxA2MycGEuY2xhaW0udjIAAAACD2Nib3KlY2FsZ2ZzaGEyNTZpc2lnbmF0dXJleE1zZWxmI2p1bWJmPS9jMnBhL3VybjpjMnBhOjliZjBjNDViLTdlYzYtNDAyMS04NDNlLWZiOGVlYTI1OWIyYS9jMnBhLnNpZ25hdHVyZWppbnN0YW5jZUlEeCx4bXA6aWlkOmM2ODQzOTQ5LWM2NzktNGUyNC04YjExLTIzNDUxYjE2NjI0MnJjcmVhdGVkX2Fzc2VydGlvbnODomN1cmx4LXNlbGYjanVtYmY9YzJwYS5hc3NlcnRpb25zL2MycGEuaW5ncmVkaWVudC52M2RoYXNoWCCrb6k8+JwmlmR7mAeboMZS8Ug+zfcQQGP1jnqSFS3h36JjdXJseCpzZWxmI2p1bWJmPWMycGEuYXNzZXJ0aW9ucy9jMnBhLmFjdGlvbnMudjJkaGFzaFggxxaNsht495MKEuch0yvJlyfnnpv+2NnxugIPEJvwgtGiY3VybHgpc2VsZiNqdW1iZj1jMnBhLmFzc2VydGlvbnMvYzJwYS5oYXNoLmRhdGFkaGFzaFggisWZJQopltr0koNV78pLwo38q5NYVeaLPbl95psEnHx0Y2xhaW1fZ2VuZXJhdG9yX2luZm+jZG5hbWVvQW50aHJvcGljIEZpbGVzZ3ZlcnNpb25lMS4wLjBrc3BlY1ZlcnNpb25lMi40LjAAABA4anVtYgAAAChqdW1kYzJjcwARABCAAACqADibcQNjMnBhLnNpZ25hdHVyZQAAABAIY2JvctKEWQISogEmGCFZAgowggIGMIIBjaADAgECAhRA5aAK7sI50L64g/oGQgU9Z1UTADAKBggqhkjOPQQDAzBJMRcwFQYDVQQKEw5BbnRocm9waWMsIFBCQzEuMCwGA1UEAxMlQW50aHJvcGljIENvbnRlbnQgQ3JlZGVudGlhbHMgUm9vdCBDQTAeFw0yNjA4MDcxODQzNTZaFw0yODA4MDYxOTQzNTZaMEQxFzAVBgNVBAoTDkFudGhyb3BpYywgUEJDMSkwJwYDVQQDEyBBbnRocm9waWMgQ2xhdWRlIENvbnRlbnQgU2lnbmluZzBZMBMGByqGSM49AgEGCCqGSM49AwEHA0IABJh6CmvLUBgFFNU0vUKlOVtE6djd17L5SuwX0LemFisBM3dkd/3cyjxFA3Qo5S46fX0/ihY0VZ7mfb9KF703t5OjWDBWMA4GA1UdDwEB/wQEAwIHgDAVBgNVHSUEDjAMBgorBgEEAYPoXgIBMAwGA1UdEwEB/wQCMAAwHwYDVR0jBBgwFoAUzlHiBIFOZFsj+OPEz5o+nMHXXMIwCgYIKoZIzj0EAwMDZwAwZAIwMXMdFJ4BetLLVY7ORuE9noqbbAZOZn/aArXyTwFAZfKrPzxF2vPoJNf1+UCdg1XGAjBwX1zd9WGqYkqmL5SFqw1QySjr1zJfpJM9+1rdDwSPLMOPOjKuiXjoU/pUUeG9RwmhY3BhZFkNngAAAAAAAAAAAAAAAAAAAAAAAAAAAAAAAAAAAAAAAAAAAAAAAAAAAAAAAAAAAAAAAAAAAAAAAAAAAAAAAAAAAAAAAAAAAAAAAAAAAAAAAAAAAAAAAAAAAAAAAAAAAAAAAAAAAAAAAAAAAAAAAAAAAAAAAAAAAAAAAAAAAAAAAAAAAAAAAAAAAAAAAAAAAAAAAAAAAAAAAAAAAAAAAAAAAAAAAAAAAAAAAAAAAAAAAAAAAAAAAAAAAAAAAAAAAAAAAAAAAAAAAAAAAAAAAAAAAAAAAAAAAAAAAAAAAAAAAAAAAAAAAAAAAAAAAAAAAAAAAAAAAAAAAAAAAAAAAAAAAAAAAAAAAAAAAAAAAAAAAAAAAAAAAAAAAAAAAAAAAAAAAAAAAAAAAAAAAAAAAAAAAAAAAAAAAAAAAAAAAAAAAAAAAAAAAAAAAAAAAAAAAAAAAAAAAAAAAAAAAAAAAAAAAAAAAAAAAAAAAAAAAAAAAAAAAAAAAAAAAAAAAAAAAAAAAAAAAAAAAAAAAAAAAAAAAAAAAAAAAAAAAAAAAAAAAAAAAAAAAAAAAAAAAAAAAAAAAAAAAAAAAAAAAAAAAAAAAAAAAAAAAAAAAAAAAAAAAAAAAAAAAAAAAAAAAAAAAAAAAAAAAAAAAAAAAAAAAAAAAAAAAAAAAAAAAAAAAAAAAAAAAAAAAAAAAAAAAAAAAAAAAAAAAAAAAAAAAAAAAAAAAAAAAAAAAAAAAAAAAAAAAAAAAAAAAAAAAAAAAAAAAAAAAAAAAAAAAAAAAAAAAAAAAAAAAAAAAAAAAAAAAAAAAAAAAAAAAAAAAAAAAAAAAAAAAAAAAAAAAAAAAAAAAAAAAAAAAAAAAAAAAAAAAAAAAAAAAAAAAAAAAAAAAAAAAAAAAAAAAAAAAAAAAAAAAAAAAAAAAAAAAAAAAAAAAAAAAAAAAAAAAAAAAAAAAAAAAAAAAAAAAAAAAAAAAAAAAAAAAAAAAAAAAAAAAAAAAAAAAAAAAAAAAAAAAAAAAAAAAAAAAAAAAAAAAAAAAAAAAAAAAAAAAAAAAAAAAAAAAAAAAAAAAAAAAAAAAAAAAAAAAAAAAAAAAAAAAAAAAAAAAAAAAAAAAAAAAAAAAAAAAAAAAAAAAAAAAAAAAAAAAAAAAAAAAAAAAAAAAAAAAAAAAAAAAAAAAAAAAAAAAAAAAAAAAAAAAAAAAAAAAAAAAAAAAAAAAAAAAAAAAAAAAAAAAAAAAAAAAAAAAAAAAAAAAAAAAAAAAAAAAAAAAAAAAAAAAAAAAAAAAAAAAAAAAAAAAAAAAAAAAAAAAAAAAAAAAAAAAAAAAAAAAAAAAAAAAAAAAAAAAAAAAAAAAAAAAAAAAAAAAAAAAAAAAAAAAAAAAAAAAAAAAAAAAAAAAAAAAAAAAAAAAAAAAAAAAAAAAAAAAAAAAAAAAAAAAAAAAAAAAAAAAAAAAAAAAAAAAAAAAAAAAAAAAAAAAAAAAAAAAAAAAAAAAAAAAAAAAAAAAAAAAAAAAAAAAAAAAAAAAAAAAAAAAAAAAAAAAAAAAAAAAAAAAAAAAAAAAAAAAAAAAAAAAAAAAAAAAAAAAAAAAAAAAAAAAAAAAAAAAAAAAAAAAAAAAAAAAAAAAAAAAAAAAAAAAAAAAAAAAAAAAAAAAAAAAAAAAAAAAAAAAAAAAAAAAAAAAAAAAAAAAAAAAAAAAAAAAAAAAAAAAAAAAAAAAAAAAAAAAAAAAAAAAAAAAAAAAAAAAAAAAAAAAAAAAAAAAAAAAAAAAAAAAAAAAAAAAAAAAAAAAAAAAAAAAAAAAAAAAAAAAAAAAAAAAAAAAAAAAAAAAAAAAAAAAAAAAAAAAAAAAAAAAAAAAAAAAAAAAAAAAAAAAAAAAAAAAAAAAAAAAAAAAAAAAAAAAAAAAAAAAAAAAAAAAAAAAAAAAAAAAAAAAAAAAAAAAAAAAAAAAAAAAAAAAAAAAAAAAAAAAAAAAAAAAAAAAAAAAAAAAAAAAAAAAAAAAAAAAAAAAAAAAAAAAAAAAAAAAAAAAAAAAAAAAAAAAAAAAAAAAAAAAAAAAAAAAAAAAAAAAAAAAAAAAAAAAAAAAAAAAAAAAAAAAAAAAAAAAAAAAAAAAAAAAAAAAAAAAAAAAAAAAAAAAAAAAAAAAAAAAAAAAAAAAAAAAAAAAAAAAAAAAAAAAAAAAAAAAAAAAAAAAAAAAAAAAAAAAAAAAAAAAAAAAAAAAAAAAAAAAAAAAAAAAAAAAAAAAAAAAAAAAAAAAAAAAAAAAAAAAAAAAAAAAAAAAAAAAAAAAAAAAAAAAAAAAAAAAAAAAAAAAAAAAAAAAAAAAAAAAAAAAAAAAAAAAAAAAAAAAAAAAAAAAAAAAAAAAAAAAAAAAAAAAAAAAAAAAAAAAAAAAAAAAAAAAAAAAAAAAAAAAAAAAAAAAAAAAAAAAAAAAAAAAAAAAAAAAAAAAAAAAAAAAAAAAAAAAAAAAAAAAAAAAAAAAAAAAAAAAAAAAAAAAAAAAAAAAAAAAAAAAAAAAAAAAAAAAAAAAAAAAAAAAAAAAAAAAAAAAAAAAAAAAAAAAAAAAAAAAAAAAAAAAAAAAAAAAAAAAAAAAAAAAAAAAAAAAAAAAAAAAAAAAAAAAAAAAAAAAAAAAAAAAAAAAAAAAAAAAAAAAAAAAAAAAAAAAAAAAAAAAAAAAAAAAAAAAAAAAAAAAAAAAAAAAAAAAAAAAAAAAAAAAAAAAAAAAAAAAAAAAAAAAAAAAAAAAAAAAAAAAAAAAAAAAAAAAAAAAAAAAAAAAAAAAAAAAAAAAAAAAAAAAAAAAAAAAAAAAAAAAAAAAAAAAAAAAAAAAAAAAAAAAAAAAAAAAAAAAAAAAAAAAAAAAAAAAAAAAAAAAAAAAAAAAAAAAAAAAAAAAAAAAAAAAAAAAAAAAAAAAAAAAAAAAAAAAAAAAAAAAAAAAAAAAAAAAAAAAAAAAAAAAAAAAAAAAAAAAAAAAAAAAAAAAAAAAAAAAAAAAAAAAAAAAAAAAAAAAAAAAAAAAAAAAAAAAAAAAAAAAAAAAAAAAAAAAAAAAAAAAAAAAAAAAAAAAAAAAAAAAAAAAAAAAAAAAAAAAAAAAAAAAAAAAAAAAAAAAAAAAAAAAAAAAAAAAAAAAAAAAAAAAAAAAAAAAAAAAAAAAAAAAAAAAAAAAAAAAAAAAAAAAAAAAAAAAAAAAAAAAAAAAAAAAAAAAAAAAAAAAAAAAAAAAAAAAAAAAAAAAAAAAAAAAAAAAAAAAAAAAAAAAAAAAAAAAAAAAAAAAAAAAAAAAAAAAAAAAAAAAAAAAAAAAAAAAAAAAAAAAAAAAAAAAAAAAAAAAAAAAAAAAAAAAAAAAAAAAAAAAAAAAAAAAAAAAAAAAAAAAAAAAAAAAAAAAAAAAAAAAAAAAAAAAAAAAAAAAAAAAAAAAAAAAAAAAAAAAAAAAAAAAAAAAAAAAAAAAAAAAAAAAAAAAAAAAAAAAAAAAAAAAAAAAAAAAAAAAAAAAAAAAAAAAAAAAAAAAAAAAAAAAAAAAAAAAAAAAAAAAAAAAAAAAAAAAAAAAAAAAAAAAAAAAAAAAAAAAAAAAAAAAAAAAAAAAAAAAAAAAAAAAAAAAAAAAAAAAAAAAAAAAAAAAAAAAAAAAAAAAAAAAAAAAAAAAAAAAAAAAAAAAAAAAAAAAAAAAAAAAAAAAAAAAAAAAAAAAAAAAAAAAAAAAAAAAAAAAAAAAAAAAAAAAAAAAAAAAAAAAAAAAAAAAAAAAAAAAAAAAAAAAAAAAAAAAAAAAAAAAAAAAAAAAAAAAAAAAAAAAAAAAAAAAAAAAAAAAAAAAAAAAAAAAAAAAAAAAAAAAAAAAAAAAAAAAAAAAAAAAAAAAAAAAAAAAAAAAAAAAAAAAAAAAAAAAAAAAAAAAAAAAAAAAAAAAAAAAAAAAAAAAAAAAAAAAAAAAAAAAAAAAAAAAAAAAAAAAAAAAAAAAAAAAAAAAAAAAAAAAAAAAAAAAAAAAAAAAAAAAAAAAAAAAAAAAAAAAAAAAAAAAAAAAAAAAAAAAAAAAAAAAAAAAAAAAAAAAAAAAAAAAAAAAAAAAAAAAAAAAAAAAAAAAAAAAAAAAAAAAAAAAAAAAAAAAAAAAAAAAAAAAAAAAAAAAAAAAAAAAAAAAAAAAAAAAAAAAAAAAAAAAAAAAAAAAAAAAAAAAAAAAAAAAAAAAAAAAAAAAAAAAAAAAAAAAAAAAAAAAAAAAAAAAAAAAAAAAAAAAAAAAAAAAAAAAAAAAAAAAAAAAAAAAAAAAAAAAAAAAAAAAAAAAAAAAAAAAAAAAAAAAAAAAAAAAAAAAAAAAAAAAAAAAAAAAAAAAAAAAAAAAAAAAAAAAAAAAAAAAAAAAAAAAAAAAAAAAAAAAAAAAAAAAAAAAAAAAAAAAAAAAAAAAAAAAAAAAAAAAAAAAAAAAAAAAAAAAAAAAAAAAAAAAAAAAAAAAAAAAAAAAAAAAAAAAAAAAAAAAAAAAAAAAAAAAAAAAAAAAAAAAAAAAAAAAAAAAAAAAAAAAAAAAAAAAAAAAAAAAAAAAAAAAAAAAAAAAAAAAAAAAAAAAAAAAAAAAAAAAAAAAAAAAAAAAAAAAAAAAAAAAAAAAAAAAAAAAAAAAAAAAAAAAAAAAAAAAAAAAAAAAAAAAAAAAAAAAPZYQHKtQ3/z/b3b4sczXjXWLt+qlli1GMT+HjlmD+dpVsl6EfXFH/n2JJnRQiWh7D68uysgxy0Iw27Konuw4plQHqY=</c2pa:manifest></metadata>
  <title>Red Door Property Management</title>
  <defs>
    <style>
      .cls-2 { fill: #ffffff; }
      .cls-3 { fill: #ffffff; }
    </style>
    <mask id="keyhole">
      <rect x="18" y="24" width="288" height="136" fill="#fff"/>
      <path fill="#000" d="M80.1,74c0-2.4-1.3-4.1-2.7-3.9-1.4.2-2.5,2.3-2.4,4.6,0,1.6.6,3,1.5,3.6l-.6,6.8c0,.2.1.4.3.4l3.4-.5c.2,0,.3-.2.3-.5l-1-6.6c.8-.8,1.3-2.3,1.2-4Z"/>
    </mask>
  </defs>
  <g mask="url(#keyhole)">
      <polygon class="cls-3" points="43.1 155.6 23.5 158.4 23.5 28.3 43.1 28.4 43.1 155.6"/>
      <polygon class="cls-3" points="65.1 152.2 45.5 155.1 45.5 28.4 65.1 28.4 65.1 152.2"/>
      <polygon class="cls-3" points="87.1 149 67.5 151.8 67.5 28.4 87.1 28.4 87.1 149"/>
  </g>
  <g>
    <path class="cls-2" d="M104.3,113.1h-2.7v-21.5h3.1c6.6,0,8.7,2.3,8.7,6.2s-3.4,6.3-7.5,6.3h-1.5v9ZM104.3,101.7h.9c2.7,0,5.7-.5,5.7-3.9s-3.2-3.8-5.8-3.8h-.7v7.7Z"/>
    <path class="cls-2" d="M118.7,101.9h0c.6-1.6,1.9-2.6,3.6-2.6s1.5.3,2.1.7l-1.2,2.3c-.5-.4-1-.5-1.6-.5-2.8,0-3.1,2.6-3.1,4.7v6.6h-2.6v-13.3h2.6v2.2Z"/>
    <path class="cls-2" d="M139.6,106.4c0,4-3.1,7.1-7.1,7.1s-7.1-3.1-7.1-7.1,3.1-7.1,7.1-7.1,7.1,3.1,7.1,7.1ZM127.9,106.4c0,2.5,2,4.6,4.6,4.6s4.6-2.1,4.6-4.6-2-4.6-4.6-4.6-4.6,2.1-4.6,4.6Z"/>
    <path class="cls-2" d="M144.8,102h0c1.1-1.6,2.6-2.6,4.6-2.6,3.8,0,6.3,3.3,6.3,7s-2.3,7.2-6.4,7.2-3.5-1-4.5-2.5h0v9.7h-2.6v-21h2.6v2.2ZM153.2,106.4c0-2.6-1.6-4.8-4.3-4.8s-4.2,2.3-4.2,4.8,1.5,4.8,4.2,4.8,4.3-2.2,4.3-4.8Z"/>
    <path class="cls-2" d="M160.4,106.8c0,2.3,1.6,4.4,4,4.4s3-1,4-2.6l2.2,1.2c-1.3,2.3-3.6,3.6-6.2,3.6-4.1,0-6.5-3.1-6.5-7s2.2-7.2,6.5-7.2,6.2,3.1,6.2,7.1v.4h-10.2ZM168,104.9c-.3-2-1.6-3.3-3.7-3.3s-3.5,1.4-3.8,3.3h7.5Z"/>
    <path class="cls-2" d="M176.1,101.9h0c.6-1.6,1.9-2.6,3.6-2.6s1.5.3,2.1.7l-1.2,2.3c-.5-.4-1-.5-1.6-.5-2.8,0-3.1,2.6-3.1,4.7v6.6h-2.6v-13.3h2.6v2.2Z"/>
    <path class="cls-2" d="M187.4,113.1h-2.6v-10.9h-1.4v-2.4h1.4v-5.1h2.6v5.1h2.5v2.4h-2.5v10.9Z"/>
    <path class="cls-2" d="M189.8,99.7h3l4.5,8.5,4.2-8.5h2.9l-10.8,21h-2.9l5.2-9.9-6.1-11.1Z"/>
    <path class="cls-2" d="M105.2,126h0l-2.5,14.2h-2.8l4.4-22.4,7.4,16.9,7.4-16.9,4.4,22.4h-2.8l-2.5-14.2h0l-6.4,14.6-6.4-14.6Z"/>
    <path class="cls-2" d="M138.6,140.2h-2.6v-2.1h0c-1,1.5-2.6,2.5-4.5,2.5-4.1,0-6.4-3.4-6.4-7.2s2.4-7,6.3-7,3.6,1,4.6,2.6h0v-2.2h2.6v13.3ZM136.2,133.5c0-2.6-1.6-4.8-4.3-4.8s-4.2,2.3-4.2,4.8,1.5,4.8,4.2,4.8,4.3-2.2,4.3-4.8Z"/>
    <path class="cls-2" d="M145.1,128.7h0c.8-1.4,2.4-2.2,4-2.2,3.8,0,4.7,2.5,4.7,5.8v7.9h-2.6v-7.6c0-2.3-.3-3.8-2.9-3.8s-3.3,2.9-3.3,5.3v6.1h-2.6v-13.3h2.6v1.8Z"/>
    <path class="cls-2" d="M170.5,140.2h-2.6v-2.1h0c-1,1.5-2.6,2.5-4.5,2.5-4.1,0-6.4-3.4-6.4-7.2s2.4-7,6.3-7,3.6,1,4.6,2.6h0v-2.2h2.6v13.3ZM168.1,133.5c0-2.6-1.6-4.8-4.3-4.8s-4.2,2.3-4.2,4.8,1.5,4.8,4.2,4.8,4.3-2.2,4.3-4.8Z"/>
    <path class="cls-2" d="M186.9,139.9c0,4.6-1.3,7.9-6.5,7.9s-6.4-2.3-6.4-6h2.6c0,2.4,1.7,3.8,4,3.8s3.8-2.2,3.8-4.9v-2.5h0c-1,1.5-2.6,2.5-4.5,2.5-4.1,0-6.4-3.4-6.4-7.2s2.4-7,6.3-7,3.6,1,4.6,2.7h0v-2.3h2.6v13.1ZM184.4,133.5c0-2.6-1.6-4.8-4.3-4.8s-4.2,2.3-4.2,4.8,1.5,4.8,4.2,4.8,4.3-2.2,4.3-4.8Z"/>
    <path class="cls-2" d="M192.3,134c0,2.3,1.6,4.4,4,4.4s3-1,4-2.6l2.2,1.2c-1.3,2.3-3.6,3.6-6.2,3.6-4.1,0-6.6-3.1-6.6-7s2.2-7.2,6.5-7.2,6.2,3.1,6.2,7.1v.4h-10.2ZM199.9,132c-.3-2-1.6-3.3-3.7-3.3s-3.5,1.4-3.8,3.3h7.5Z"/>
    <path class="cls-2" d="M207.7,128.5h0c.7-1.2,2.1-2.1,3.5-2.1s3,.9,3.8,2.4c.8-1.4,2.4-2.4,4.1-2.4,3.5,0,4.4,2.7,4.4,5.8v8h-2.6v-7.5c0-1.7-.2-3.9-2.5-3.9s-2.9,2.8-2.9,4.9v6.6h-2.6v-7.1c0-1.7,0-4.4-2.5-4.4s-3,2.8-3,4.9v6.6h-2.6v-13.3h2.6v1.7Z"/>
    <path class="cls-2" d="M229.2,134c0,2.3,1.6,4.4,4,4.4s3-1,4-2.6l2.2,1.2c-1.3,2.3-3.6,3.6-6.2,3.6-4.1,0-6.6-3.1-6.6-7s2.2-7.2,6.5-7.2,6.2,3.1,6.2,7.1v.4h-10.2ZM236.8,132c-.3-2-1.6-3.3-3.7-3.3s-3.5,1.4-3.8,3.3h7.5Z"/>
    <path class="cls-2" d="M244.7,128.7h0c.8-1.4,2.4-2.2,4-2.2,3.8,0,4.7,2.5,4.7,5.8v7.9h-2.6v-7.6c0-2.3-.3-3.8-2.9-3.8s-3.3,2.9-3.3,5.3v6.1h-2.6v-13.3h2.6v1.8Z"/>
    <path class="cls-2" d="M260.5,140.2h-2.6v-10.9h-1.4v-2.4h1.4v-5.1h2.6v5.1h2.5v2.4h-2.5v10.9Z"/>
    <path class="cls-2" d="M107.5,50.1h.2c1.6-3.3,4.1-5.2,8-5.2v6.9h-1.2c-5.2,0-6.8,2.8-6.8,7.6v23.6h-7.1v-37.5h7v4.6Z"/>
    <path class="cls-2" d="M123.6,65.7c0,3.1-.1,11.7,4.4,11.7s4.4-4.1,4.4-7h6.5c0,6.9-3,13.2-10.9,13.2s-11.4-11.2-11.4-19.1.9-19.6,11.2-19.6,11.4,11.9,11.4,19.6v1.1h-15.5ZM131.9,60.7c0-2.9,0-9.5-4.2-9.5s-4.1,6.6-4.1,9.5h8.3Z"/>
    <path class="cls-2" d="M159.2,78.2h-.1c-1.4,3.3-3,5.4-6.9,5.4-8.7,0-8.8-13.8-8.8-19.8s.2-18.9,9.1-18.9,5.3,1.9,6.7,4.8h.1v-16.9h7v50.3h-7v-4.8ZM159.4,64.2c0-3,.3-13.1-4.4-13.1s-4.6,10-4.6,13.1-.6,13.2,4.6,13.2,4.4-10.2,4.4-13.2Z"/>
    <path class="cls-3" d="M193.8,78.2h-.2c-1.4,3.3-3,5.4-6.9,5.4-8.7,0-8.8-13.8-8.8-19.8s.2-18.9,9.1-18.9,5.3,1.9,6.7,4.8h.2v-17.8h7v51.2h-7v-4.8ZM194,64.2c0-3,.3-13.1-4.4-13.1s-4.6,10-4.6,13.1-.6,13.2,4.6,13.2,4.4-10.2,4.4-13.2Z"/>
    <path class="cls-3" d="M217.9,83.6c-10.7,0-11.8-11.4-11.8-19.3s1.1-19.5,11.8-19.5,11.8,11.3,11.8,19.5-1.1,19.3-11.8,19.3M222.6,64.4c0-3,.7-13.1-4.7-13.1s-4.7,10.1-4.7,13.1-.7,12.9,4.7,12.9,4.7-10.2,4.7-12.9Z"/>
    <path class="cls-3" d="M234,64.4c0-8.2,1.1-19.5,11.8-19.5s11.8,11.3,11.8,19.5-1.1,19.3-11.8,19.3-11.8-11.4-11.8-19.3ZM250.5,64.4c0-3,.7-13.1-4.7-13.1s-4.7,10.1-4.7,13.1-.7,12.9,4.7,12.9,4.7-10.2,4.7-12.9Z"/>
    <path class="cls-3" d="M271.4,50.1h.1c1.6-3.3,4.1-5.2,8-5.2v6.9h-1.2c-5.2,0-6.8,2.8-6.8,7.6v23.6h-7.1v-37.5h7v4.6Z"/>
  </g>
</svg>
